<svg version="1.1" id="Layer_1" xmlns="http://www.w3.org/2000/svg" x="0" y="0" viewBox="0 0 156.7 43.5" xml:space="preserve"><style>.st0{fill:#fdb913}.st1{fill:#fff}</style><path class="st0" d="M76.2 41.4h68.5v.8H76.2z"/><path class="st1" d="M9.6 35.8c9.7 0 23.2 5.5 33 5.5 7 0 13.8-1.9 17.7-4.6 2.5-16.2-8.6-31.3-24.7-33.8S4.3 11.5 1.8 27.6c-.5 3-.5 6.1 0 9.1 2.6-.5 5.2-.8 7.8-.9z"/><path class="st0" d="M50.1 24.9l1.2.5 2.6-1.8z"/><path class="st0" d="M6.5 22.9l-3.1-1.1.2-.4L7 22.6l.5-.3h.2l-3.8-1.7.2-.4 8.4 3.4h.3l-8.4-4.2.2-.4 8.9 4.1h.1L5 18.2l.2-.4 12.4 6.8.4-.7c-3-2.8-6.1-5.4-9.3-7.8 3.4 2.2 6.9 4.2 10.5 6l.5-.7-10.5-9.2.3-.3 8.5 7.3-7.9-7.9.3-.3 8.9 8.6-8.3-9.2.3-.3 7.7 8.2-7-8.8.3-.3 9 10.9.7-.5c-1.7-3.7-3.6-7.2-5.7-10.7 2.3 3.3 4.8 6.5 7.4 9.5l.8-.4-6.4-12.5.4-.2 5.2 10-4.4-10.4.4-.2 5 11.3-4.2-11.6h.4l4 10.5L21.7 4h.4l4.2 13.4.9-.2C27 13.1 26.6 9 25.9 5c.9 3.9 2 7.7 3.3 11.5h.8l-1.1-14h.4l1.1 11.2-.2-11.2h.4l.4 12.4.4-12.4h.6l-.2 11.2 1-11.2h.4l-1.1 14h.9c1.3-3.7 2.4-7.5 3.3-11.4C35.7 9 35.2 13 35 17l.8.3L40 3.9h.4l-3.2 10.9 4-10.5h.4l-4.2 11.8 5-11.3.4.2-4.3 10.3 5.2-10 .4.2L37.8 18l.8.4c2.6-3 5.1-6.1 7.4-9.4-2.1 3.4-3.9 7-5.6 10.6l.7.6 8.7-10.9.3.3-7 8.8 7.7-8.2.3.3-8.3 9.2 8.9-8.6.3.3-7.9 7.9 8.5-7.3.3.3-10.4 9.2.5.6c3.6-1.8 7-3.8 10.4-6-3.2 2.4-6.3 5-9.2 7.7l.5.8 12.2-6.7.2.4-9.8 5.5 10.2-4.7.2.4-9.5 4.6h.2l9.6-3.8.2.4-9 3.8h.2l6-2 .9-.6.3.2 2-.6.2.4-1.7.6 2.4 1.9.8.4C56.4 8.7 40.2-1.2 24.1 2.6 12.9 5.3 4.2 14.2 1.8 25.5l.4-.2h.2l4.1-2.4z"/><path d="M1.5 37.3c2.7-.5 5.4-.8 8.1-.9 9.7 0 23.2 5.5 33 5.5 7.2 0 14.2-2 18-4.8.7-4.1.6-8.2-.4-12.2l-4.1-2.3-4.8 3.3-3.2-1.2c-1.1.5-7.8 5-7.8 5l-2.6-1.9-2.7-.5-3.7-2.7-4.2 2.9-4.9 2.7c-.2 0-5.7-4.4-5.7-4.4L14 23.2l-2.2 1.1h-.1l-1.7-.5-2-1.1-6.2 2.8h-.1c-.8 3.9-.9 7.9-.2 11.8z" fill="#4c81af"/><path class="st1" d="M100.3 21.2h-.6c-.2.3-.2.6 0 .9h4.8c.1-.1.2-.3.2-.5s-.1-.3-.2-.4h-.6c-.8 0-.8-.2-.8-1.8v-5.6c0-1.6 0-2 .8-2h.5c.2 0 .3 0 .3-.3s-.2-.4-.4-.4h-4.6c-.1.1-.2.3-.2.5 0 .1.1.2.2.2h.6c.8 0 .8.3.8 1.8v5.7c0 1.8 0 1.8-.8 1.9zm-11.9 0h-.7c-.2.3-.2.6 0 .9h5.2c.2-.3.2-.6 0-.9H92c-.7 0-.7-.3-.7-1V17h.2c1.2 0 1.2 0 1.7 1l2 3.5c.2.4.5.6.9.6h2.4c.2-.2.3-.6.1-.9h-.8c-.4-.1-.5-.3-.8-.7l-1.6-2.7-.6-1.1c1.4-.2 2.4-1.4 2.5-2.8 0-2.1-2.1-2.8-3.9-2.8h-5.7v.2c0 .2 0 .5.2.6h.6c.9.1.9.1.9 1V20c-.2 1.1-.3 1.2-1 1.2zm2.9-9.1h1.2c1.2 0 2.4.6 2.4 1.9 0 .6-.2 1.2-.7 1.5-.6.3-1.2.5-1.9.5h-1v-3.9zm63.6 24.2h-.4c-.4-.1-.5-.6-.7-1.1V35l-3.5-8.3s-.2-.6-.5-.6-.6.5-.7.7l-3.4 8.5c-.2.5-.4 1-.8 1h-.9c-.2.3-.3.6-.1.9h3.9c.2-.3.2-.6 0-.9h-.7c-.5 0-.5-.1-.5-.3 0-.2.1-.3.2-.5l.5-1.3s.2-.6.5-.6h2.7c.5 0 .6.7.6.7l.4 1.1.3.7c0 .1-.1.3-.7.3h-.9c-.2.3-.2.6 0 .9h4.8c.3 0 .3-.2.3-.6 0-.2-.1-.3-.3-.3l-.1-.1zm-4.7-4h-2.4l1.2-3.2 1.3 3.2h-.1zm-45-18.9c.1.2.3.3.5.3 0 0 .3.1.4-.1.2-.4.4-.8.6-1.1.5-.4 1.1-.6 1.7-.5h1.1v8.2c0 .7 0 1-.6 1h-.9c-.2.3-.2.6 0 .9h5c.1-.1.2-.3.2-.5s-.1-.3-.2-.4h-.7c-.7 0-.7-.3-.7-1.5V12h1.4c.6-.1 1.1.2 1.5.6.2.2.3.6.3.9h1c0-.7 0-1.5.2-2.2v-.4h-.9c-.2.3-.2.3-1 .3h-6.3c-.8 0-1 0-1.1-.3h-.9c-.1.7-.3 1.4-.6 2.1v.4zm18.3 8.5c1 .4 2 .5 3 .5h.2c2.6 0 4.3-1.4 4.3-3.3s-.8-2.5-2.6-3.4l-1.5-.8c-.7-.4-1.5-1-1.5-1.7s.7-1.5 2-1.5h.3c1 0 1.8.7 2 1.6h1.1v-.2c0-.7-.1-1.4-.4-2.1h-.9l-1.8-.2c-2.9.1-4.2 1.6-4.1 3.2.2 1.3 1 2.5 2.3 3l1.8 1c1.3.7 1.4 1.4 1.4 2s-.6 1.6-2.1 1.6c-1.3 0-2.5-.8-2.9-2.1-.1-.2-.2-.3-.4-.3h-.7c0 .8.2 1.6.5 2.3v.4zm-6-.6h-.4c-.2.2-.2.6 0 .8h4.8c.1-.1.2-.3.2-.5s-.1-.3-.2-.4h-.6c-.8-.1-.8-.1-.8-1.7v-5.6c0-1.7 0-2 .8-2h.5c.2-.1.4-.1.3-.4 0-.2-.2-.4-.4-.4h-4.6c-.1.1-.2.3-.2.5s.1.2.2.3h.6c.8 0 .8.1.8 1.8v5.6c-.1 1.8-.1 1.8-.9 1.9l-.1.1zm14.8-9.3h.6c.6 0 .7.1.7 1.8v6.1c0 1.2-.1 1.3-.7 1.3h-.6c-.2.3-.2.6 0 .9h4.6c.1-.1.2-.3.2-.5s-.1-.3-.2-.4h-.5c-.5 0-.7-.2-.7-1.7v-2.4h5.8v2.8s0 1.3-.7 1.3h-.5c-.2.3-.2.6 0 .9h4.5c.1-.1.2-.3.2-.5s-.1-.3-.2-.4h-.6c-.7 0-.7-.1-.7-1.6v-5.9c0-1.6 0-1.6.7-1.7h.4c.2 0 .4-.3.3-.5 0-.2-.2-.4-.4-.4h-4.3c-.1.1-.2.2-.2.4s.1.4.2.5h.4c.8 0 .8.1.8 1.7v2.1h-5.8v-2c0-1.6 0-1.8.6-1.8h.5c.3 0 .3-.2.3-.5s0-.4-.4-.4h-4.3c-.1.1-.2.2-.2.4s.1.4.2.5zm10.2 15h.5c.2 0 .3-.2.3-.4s-.3-.4-.5-.4h-4.7c-.2.2-.2.4-.2.6 0 .1.1.2.2.3h.6c.8 0 .8.1.8 1.9v5.7c0 1.6 0 1.6-.8 1.7h-.6c-.2.3-.2.6 0 .9h4.9c.1-.1.2-.3.2-.5s-.1-.3-.2-.4h-.6c-.8-.1-.8-.1-.8-1.7v-5.8c0-1.7 0-1.9.6-1.9h.3zm-42.4 7.5h-.8c-.2.6-.6 1.1-1.1 1.5-.6.2-1.1.2-1.7.2h-.2c-.6.1-1.1 0-1.6-.3-.2-.2-.4-.4-.4-1.4v-5.7c0-1.6.2-1.7 1-1.7h.5c.2 0 .3-.1.3-.5 0-.2-.2-.4-.4-.4h-4.9c-.1.1-.2.3-.2.5s.1.3.2.4h.6c.9 0 .9.1.9 1.8v5.8c0 1.6 0 1.7-.8 1.7h-.7c-.2.3-.2.6 0 .9h8.8c.3-.7.6-1.5.8-2.3.1-.2-.1-.4-.3-.5zm-10.8-6.9c-1.2-1.2-2.9-1.9-4.6-1.8h-.3c-3.2 0-5.8 2.6-5.8 5.8v.2c0 2.9 2 5.7 6.1 5.7h.2c3.3.1 5.9-2.5 6-5.8 0-1.5-.5-3-1.6-4.1zm-4.4 8.9c-1.6 0-4.2-1.2-4.2-5.3s2.2-4.4 3.7-4.4 4.3 2.1 4.3 4.9v.5c-.1 2.2-1.2 4.3-3.8 4.3zm41.8-.2h-.6l-.6-.2c-.1-.1-.2-.2-.2-.4V28c0-.3 0-.5.1-.8.1-.2 1.1-.2 1.1-.2s.2-.1.2-.2.1-.5-.1-.7H124c-.5 0-.6.3-.7.6l-3.5 7.4-3-7.4c-.1-.4-.3-.6-.6-.6H113l-.3.2c0 .3-.1.5.2.7h1c.2 0 .3.2.3.7l-.2 7.6c-.1.8-.2 1-.8 1h-.8c-.2.3-.1.6.1.9h4.2c.2-.3.2-.6 0-.9h-.8c-.2 0-.5-.1-.6-.3-.2-.4-.2-.9-.1-1.4v-6.3l3.4 8.4c.1.2.3.3.5.3h.4l3.9-8.5v7.3c0 .2-.1.3-.2.4l-.6.2h-.8c-.2.3-.2.6 0 .9h5c.2-.3.2-.7-.1-1zm-15-10.2h-4.2c-.2.2-.3.5-.1.8h1.3c.2.3.2 3.5.2 5.2s-1.6 4-3.1 4-3-1.2-3-4v-3.7c0-1.3 0-1.4.7-1.4h.6c.2-.1.3-.2.2-.5s-.1-.4-.3-.4h-4.6c-.1.1-.2.3-.2.5s.1.3.2.4h.7c.7 0 .7 0 .7 1.6v3.9c-.1 1.5.5 3 1.6 4 .9.6 1.9 1 3 1h.3c1.3 0 2.5-.5 3.5-1.3 1-1.1 1.1-2.1 1.1-4.1 0-1.6.1-3.3.2-4.9.1-.1.3-.2.5-.2h.7c.2-.1.2-.2.2-.5 0-.2-.1-.3-.2-.4zM76.9 10.4c.6 0 .7.1.7 1.5v7.2c0 1.9 0 1.9-.9 2.1h-.6c-.2.2-.3.5-.1.8h5.2c3.7 0 5.8-1.5 5.8-4.1-.1-1.6-1.3-3-2.9-3.2 1.1-.4 1.8-1.4 1.8-2.6-.1-1-.6-1.8-1.5-2.3-1-.4-2-.6-3.1-.6h-.5l-4.5.2c-.1 0-.3.2-.3.3-.1.3 0 .5.2.7h.7zm7.8 8.3c0 1.9-1.6 2.3-3 2.3h-.2c-.4 0-.9-.1-1.2-.4-.3-.5-.4-1.2-.4-1.8V16h.9c3.4-.2 3.9 1.7 3.9 2.7zm-4.8-8.2h1c1.3 0 2.8.6 2.8 2.2s-.5 2-3 2.1h-.8v-4.3zm-2.3 23.1h-.5c-.5 1.6-2 2.6-3.6 2.6h-.2c-3.3 0-5.5-2.5-5.5-6.1-.2-2.9 2.1-5.4 5-5.6h.2c2.5 0 3.3.9 3.7 2.6h1.2c-.2-.9-.3-1.9-.3-2.8V24h-.7c-1.1-.3-2.3-.5-3.5-.5H73c-1.9 0-3.7.6-5.2 1.7-1.6 1.3-2.6 3.4-2.5 5.5-.1 2.2 1 4.4 2.9 5.6 1.4.9 3 1.4 4.7 1.4h.3c1.1 0 2.2-.2 3.2-.5l.6-.2h.2c.5-.9.9-1.8 1-2.8 0-.3-.3-.6-.6-.6zm57.7-2.6c1.2-.5 1.8-1.9 1.3-3.1-.3-.7-.8-1.2-1.4-1.4-1-.3-2-.4-3-.4h-4.3l-.3.2c-.1.2-.1.5.1.7h.8c.6 0 .6.1.6 1.3v6.3c0 1.6 0 1.6-.7 1.7h-.5c-.1.1-.2.2-.2.4s.1.4.2.5h4.7c4.2 0 5.2-.9 5.2-3.6-.2-1.3-1.3-2.4-2.6-2.6h.1zm-4.1-4h.9c1.2 0 2.6.5 2.6 1.9s-.6 1.8-2.8 1.8h-.7V27zm.4 9c-.3-.2-.5-1-.5-1.5v-2.7h1c2.8 0 3.4 1.4 3.4 2.6s-1.5 1.9-2.8 1.9c-.4 0-.8-.1-1.1-.3z"/><path fill="none" d="M116.9 36.6h.6v.6h-.6z"/></svg>